<svg xmlns="http://www.w3.org/2000/svg" xmlns:xlink="http://www.w3.org/1999/xlink" width="128" height="128" viewBox="0 0 128 128">
  <defs>
    <clipPath id="clip-path">
      <rect id="Rectangle_462" data-name="Rectangle 462" width="128" height="128" fill="#fff"/>
    </clipPath>
  </defs>
  <g id="Mask_Group_19" data-name="Mask Group 19" clip-path="url(#clip-path)">
    <g id="shipped" transform="translate(9.044 29.254)">
      <g id="Group_758" data-name="Group 758">
        <g id="Group_757" data-name="Group 757">
          <path id="Path_222" data-name="Path 222" d="M102.155,176.681,99.31,165.3a1.719,1.719,0,0,0,1.362-1.682v-1.835a7.232,7.232,0,0,0-7.224-7.224H80.491v-3.785a3.56,3.56,0,0,0-3.554-3.554H10.894a3.56,3.56,0,0,0-3.554,3.554v31.188a1.719,1.719,0,1,0,3.439,0V150.778a.116.116,0,0,1,.116-.116H76.937a.116.116,0,0,1,.116.116v31.188a1.719,1.719,0,1,0,3.439,0v-1.95h20.3a5.642,5.642,0,0,1,5.343,3.9h-5.349a1.719,1.719,0,0,0-1.719,1.719v3.67a5.4,5.4,0,0,0,5.389,5.389h1.95v7.568h-4.5a10.888,10.888,0,0,0-20.587,0h-.827V189.3a1.719,1.719,0,0,0-3.439,0V202.26H41.372a10.888,10.888,0,0,0-20.587,0H10.894a.116.116,0,0,1-.116-.115v-3.775h7.452a1.719,1.719,0,1,0,0-3.439H1.719a1.719,1.719,0,1,0,0,3.439H7.34v3.783a3.56,3.56,0,0,0,3.554,3.554h9.29v.116a10.893,10.893,0,1,0,21.786,0c0-.038,0-.075,0-.116H80.725v.116a10.893,10.893,0,1,0,21.786,0c0-.038,0-.075,0-.116h5.623a1.719,1.719,0,0,0,1.719-1.719V185.635A9.072,9.072,0,0,0,102.155,176.681ZM80.491,158H93.448a3.788,3.788,0,0,1,3.783,3.783v.116H80.491Zm0,18.575V165.339H95.774l2.81,11.238ZM31.059,213.269a7.429,7.429,0,1,1,.013,0Zm60.541,0a7.447,7.447,0,1,1,.011,0Zm14.792-22.016h-1.95a1.95,1.95,0,0,1-1.95-1.95v-1.948h3.9v3.9Z" transform="translate(0 -147.223)"/>
        </g>
      </g>
      <g id="Group_760" data-name="Group 760" transform="translate(27.518 55.044)">
        <g id="Group_759" data-name="Group 759">
          <path id="Path_223" data-name="Path 223" d="M204.315,548.75a3.554,3.554,0,1,0,3.554,3.554,3.554,3.554,0,0,0-3.554-3.554Z" transform="translate(-200.76 -548.75)"/>
        </g>
      </g>
      <g id="Group_762" data-name="Group 762" transform="translate(88.059 55.044)">
        <g id="Group_761" data-name="Group 761">
          <path id="Path_224" data-name="Path 224" d="M645.988,548.75a3.554,3.554,0,1,0,3.554,3.554,3.554,3.554,0,0,0-3.554-3.554Z" transform="translate(-642.434 -548.75)"/>
        </g>
      </g>
      <g id="Group_764" data-name="Group 764" transform="translate(44.032 47.699)">
        <g id="Group_763" data-name="Group 763">
          <path id="Path_225" data-name="Path 225" d="M348.62,495.21H322.937a1.719,1.719,0,0,0,0,3.439H348.62a1.719,1.719,0,0,0,0-3.439Z" transform="translate(-321.218 -495.21)"/>
        </g>
      </g>
      <g id="Group_766" data-name="Group 766" transform="translate(3.67 40.36)">
        <g id="Group_765" data-name="Group 765">
          <path id="Path_226" data-name="Path 226" d="M50.5,441.674H28.487a1.719,1.719,0,0,0,0,3.439H50.5a1.719,1.719,0,0,0,0-3.439Z" transform="translate(-26.768 -441.674)"/>
        </g>
      </g>
      <g id="Group_768" data-name="Group 768" transform="translate(31.189 16.51)">
        <g id="Group_767" data-name="Group 767">
          <path id="Path_227" data-name="Path 227" d="M256.148,268.184a1.719,1.719,0,0,0-2.431,0l-15.294,15.294-7.957-7.958a1.719,1.719,0,1,0-2.431,2.431l9.172,9.172a1.719,1.719,0,0,0,2.431,0l16.511-16.511A1.719,1.719,0,0,0,256.148,268.184Z" transform="translate(-227.53 -267.68)"/>
        </g>
      </g>
    </g>
  </g>
</svg>
