<svg xmlns="http://www.w3.org/2000/svg" xmlns:xlink="http://www.w3.org/1999/xlink" width="128" height="128" viewBox="0 0 128 128">
  <defs>
    <clipPath id="clip-path">
      <rect id="Rectangle_454" data-name="Rectangle 454" width="128" height="128" fill="#fff"/>
    </clipPath>
  </defs>
  <g id="Mask_Group_11" data-name="Mask Group 11" clip-path="url(#clip-path)">
    <g id="Group_804" data-name="Group 804" transform="translate(31.087 8.398)">
      <path id="Path_292" data-name="Path 292" d="M246.671,84.495a7.092,7.092,0,0,0-4.347-6.529A7.077,7.077,0,0,0,236.052,67.6H226.64V55.573a28.239,28.239,0,1,0-18.291-53.26A2.173,2.173,0,1,0,210.076,6.3,23.878,23.878,0,1,1,197.625,18.75a2.171,2.171,0,0,0-3.985-1.727,28.251,28.251,0,0,0,18.839,38.55v9.816h-.359a22.857,22.857,0,0,0-16.729,7.281H184.809a2.173,2.173,0,0,0-2.176,2.17l.015,26.913a2.17,2.17,0,0,0,2.173,2.17H195.4a22.881,22.881,0,0,0,16.717,7.281h22.264a7.077,7.077,0,0,0,6.236-10.433,7.077,7.077,0,0,0,2.97-10.436,7.077,7.077,0,0,0,3.086-5.844ZM219.557,56.471q1.383,0,2.736-.132V67.6h-5.472V56.339Q218.171,56.468,219.557,56.471Zm20.031,30.76h-1.871a2.173,2.173,0,1,0,0,4.344,2.736,2.736,0,0,1,0,5.472H234.37a2.173,2.173,0,1,0,0,4.344,2.736,2.736,0,1,1,0,5.472H212.106a18.561,18.561,0,0,1-14.1-6.523,2.17,2.17,0,0,0-1.65-.76H186.98V77.013h9.382a2.173,2.173,0,0,0,1.653-.763,18.525,18.525,0,0,1,14.1-6.52h.359v.039a2.173,2.173,0,0,0,2.173,2.173h21.4a2.736,2.736,0,0,1,0,5.472,2.173,2.173,0,1,0,0,4.344h3.536a2.736,2.736,0,1,1,0,5.472Z" transform="translate(-182.633 -0.003)"/>
      <path id="Path_293" data-name="Path 293" d="M367.019,152a6.523,6.523,0,0,0,9.215,0l10.6-10.6a6.516,6.516,0,1,0-9.216-9.216l-5.986,5.988-1.018-1.018a6.516,6.516,0,1,0-9.216,9.216Zm-2.554-11.768a2.173,2.173,0,0,1,3.071,0l2.554,2.554a2.173,2.173,0,0,0,3.072,0l7.532-7.532a2.172,2.172,0,1,1,3.071,3.071l-10.6,10.6a2.173,2.173,0,0,1-3.071,0l-5.625-5.625a2.17,2.17,0,0,1,0-3.072Z" transform="translate(-337.19 -113.858)"/>
      <path id="Path_294" data-name="Path 294" d="M314.281,64.893a2.173,2.173,0,1,0-1.536-3.709h0a2.17,2.17,0,0,0,1.536,3.706Z" transform="translate(-295.786 -52.923)"/>
    </g>
  </g>
</svg>
