<svg xmlns="http://www.w3.org/2000/svg" xmlns:xlink="http://www.w3.org/1999/xlink" width="128" height="128" viewBox="0 0 128 128">
  <defs>
    <clipPath id="clip-path">
      <rect id="Rectangle_450" data-name="Rectangle 450" width="128" height="128" fill="#fff"/>
    </clipPath>
  </defs>
  <g id="Mask_Group_7" data-name="Mask Group 7" clip-path="url(#clip-path)">
    <g id="trolley" transform="translate(11.774 11.758)">
      <path id="Path_228" data-name="Path 228" d="M140.025,641.5a6.121,6.121,0,1,0,6.121,6.121A6.121,6.121,0,0,0,140.025,641.5Zm0,8.162a2.033,2.033,0,1,1,2.034-2.033,2.033,2.033,0,0,1-2.034,2.033Zm0,0" transform="translate(-116.364 -557.418)"/>
      <path id="Path_229" data-name="Path 229" d="M98.355,84.078H95.088V40a2.034,2.034,0,0,0-2.034-2.034H82.846V10.2A2.034,2.034,0,0,0,80.813,8.17H39.992A2.034,2.034,0,0,0,37.958,10.2V84.078H36.575a14.2,14.2,0,0,0-6.787-6.787V6.116A6.129,6.129,0,0,0,23.667,0H6.128a6.122,6.122,0,0,0,0,12.245H17.536V77.291A14.286,14.286,0,1,0,36.565,96.322H98.335a6.122,6.122,0,1,0,0-12.245Zm-7.346,0H42.033V42.039H56.316V63.671A2.034,2.034,0,0,0,59.58,65.3l6.937-5.2,6.942,5.2a2.034,2.034,0,0,0,3.264-1.632V42.039H91ZM60.4,42.039H72.643V59.578l-4.9-3.655a2.034,2.034,0,0,0-2.448,0L60.4,59.6Zm-4.08-29.794h8.162V23.938l-2.949-1.965a2.034,2.034,0,0,0-2.265,0l-2.949,1.965Zm-4.082,0V27.751a2.034,2.034,0,0,0,3.172,1.7l4.99-3.327,4.99,3.327a2.034,2.034,0,0,0,3.172-1.7V12.245h10.2V37.956H42.033V12.245ZM6.118,8.162a2.041,2.041,0,0,1,0-4.082H23.657a2.034,2.034,0,0,1,2.034,2.034V76.063a14.192,14.192,0,0,0-4.082,0V10.2A2.034,2.034,0,0,0,19.575,8.17Zm17.55,92.245a10.2,10.2,0,1,1,10.2-10.2A10.2,10.2,0,0,1,23.667,100.407Zm74.685-8.162H37.806a14.194,14.194,0,0,0,0-4.082H98.355a2.041,2.041,0,0,1,0,4.082Zm0,0" transform="translate(-0.005)"/>
      <path id="Path_230" data-name="Path 230" d="M634.193,556.239a2.034,2.034,0,0,0,2.034-2.033v-4.1a2.041,2.041,0,1,0-4.082,0v4.082a2.033,2.033,0,0,0,2.049,2.046Zm0,0" transform="translate(-549.318 -476.243)"/>
      <path id="Path_231" data-name="Path 231" d="M634.187,485.793a2.034,2.034,0,1,1-2.033,2.034,2.034,2.034,0,0,1,2.033-2.034Zm0,0" transform="translate(-549.312 -422.121)"/>
      <path id="Path_232" data-name="Path 232" d="M571.906,548.074a2.034,2.034,0,0,0-2.033,2.034v4.082a2.041,2.041,0,1,0,4.082,0v-4.082a2.034,2.034,0,0,0-2.049-2.033Zm0,0" transform="translate(-495.196 -476.24)"/>
    </g>
  </g>
</svg>
