<svg xmlns="http://www.w3.org/2000/svg" xmlns:xlink="http://www.w3.org/1999/xlink" width="128" height="128" viewBox="0 0 128 128">
  <defs>
    <clipPath id="clip-path">
      <rect id="Rectangle_463" data-name="Rectangle 463" width="128" height="128" transform="translate(0 0.35)" fill="#fff"/>
    </clipPath>
  </defs>
  <g id="Mask_Group_20" data-name="Mask Group 20" transform="translate(0 -0.35)" clip-path="url(#clip-path)">
    <g id="Group_882" data-name="Group 882" transform="translate(10.523 20.029)">
      <path id="Path_250" data-name="Path 250" d="M-1912.653,52.958c-8.645-1.573-17.3-3.089-25.957-4.631l-34.572-6.166c-5.336-.959-10.662-1.954-16.012-2.813a6.142,6.142,0,0,0-4.659,1.078,6.142,6.142,0,0,0-2.474,4.092c-1.136,6.432-2.24,12.871-3.357,19.307-.511,2.933-1.024,5.868-1.549,8.892h-1.2c-2.017,0-4.036-.053-6.05.017a5.78,5.78,0,0,0-5.262,3.5c-.208.427-.367.88-.552,1.321v44.68a6.38,6.38,0,0,0,6.6,4.945h77.009a6.106,6.106,0,0,0,4.806-1.79,6.106,6.106,0,0,0,1.746-4.822V106.247c.58.089,1.026.149,1.47.225a6.268,6.268,0,0,0,5.366-.842,6.268,6.268,0,0,0,2.694-4.717q3.542-20.125,7-40.257a6.221,6.221,0,0,0-.823-4.967A6.221,6.221,0,0,0-1912.653,52.958Zm-14.972,67.388c0,2.537-.827,3.357-3.388,3.357h-76.481c-2.518,0-3.358-.847-3.358-3.4v-40.6c0-2.794.806-3.6,3.616-3.6h76.165c2.587,0,3.446.851,3.446,3.427q.007,20.411-.017,40.814Zm13.669-43.289q-2.05,11.751-4.115,23.5a2.654,2.654,0,0,1-.984,2.011,2.655,2.655,0,0,1-2.172.543c-2.928-.108-2.928-.108-2.93-3,0-6.923-.074-13.847.031-20.765a6.408,6.408,0,0,0-1.879-4.829,6.41,6.41,0,0,0-4.836-1.862c-21.8.086-43.608.046-65.411.048h-1.487c1.031-5.911,2.036-11.674,3.05-17.49l81.956,14.614c-.4,2.472-.808,4.856-1.215,7.235Zm2.981-17.365c-.309,2.228-.743,4.439-1.136,6.748l-82-14.629c.446-2.448.806-4.815,1.324-7.146a2.677,2.677,0,0,1,3.247-1.935q10.671,1.89,21.343,3.808l34.471,6.154q10.1,1.8,20.211,3.6a2.76,2.76,0,0,1,2.076,1.107,2.76,2.76,0,0,1,.468,2.306Z" transform="translate(2014.296 -39.257)"/>
      <path id="Path_251" data-name="Path 251" d="M-1944.75,326.975a4.253,4.253,0,0,0-1.235-3.172,4.252,4.252,0,0,0-3.166-1.25q-6.151-.057-12.307,0a4.3,4.3,0,0,0-3.115,1.252,4.3,4.3,0,0,0-1.266,3.11c-.039,1.6-.034,3.2,0,4.8a4.275,4.275,0,0,0,1.263,3.157,4.273,4.273,0,0,0,3.167,1.236c2.048.021,4.1,0,6.154,0s4.1.019,6.151,0a4.205,4.205,0,0,0,3.117-1.224,4.207,4.207,0,0,0,1.236-3.112Q-1944.7,329.376-1944.75,326.975Zm-4.744,5.727q-5.789-.034-11.574,0c-.914,0-1.333-.355-1.3-1.3.041-1.319,0-2.638,0-3.962,0-1.261.134-1.393,1.367-1.4h11.36c1.292,0,1.47.17,1.475,1.42,0,1.285-.024,2.573,0,3.859.038.952-.346,1.389-1.329,1.384Z" transform="translate(1975.262 -267.514)"/>
      <path id="Path_252" data-name="Path 252" d="M-1754.734,422.553a1.765,1.765,0,0,1-.581,1.343,1.765,1.765,0,0,1-1.395.443c-1.562.022-3.118,0-4.684,0h-4.681c-1.245,0-2.029-.719-2.005-1.755.022-1,.77-1.662,1.983-1.679q4.679-.029,9.353,0C-1755.5,420.91-1754.758,421.555-1754.734,422.553Z" transform="translate(1815.872 -346.781)"/>
      <path id="Path_253" data-name="Path 253" d="M-1657.809,422.61c0,1.077-.736,1.715-2.031,1.719q-4.681.017-9.353,0a1.762,1.762,0,0,1-1.349-.434,1.762,1.762,0,0,1-.594-1.286,1.75,1.75,0,0,1,.6-1.285,1.748,1.748,0,0,1,1.354-.418c1.595-.024,3.192,0,4.8,0h0c1.525,0,3.05-.014,4.575,0C-1658.528,420.9-1657.785,421.528-1657.809,422.61Z" transform="translate(1737.765 -346.769)"/>
      <path id="Path_254" data-name="Path 254" d="M-1851.6,422.618a1.754,1.754,0,0,1-.567,1.247,1.755,1.755,0,0,1-1.29.461c-1.595.031-3.189,0-4.8,0s-3.189.014-4.8,0a1.7,1.7,0,0,1-1.358-.42,1.694,1.694,0,0,1-.561-1.306,1.663,1.663,0,0,1,.534-1.262,1.663,1.663,0,0,1,1.3-.432q4.835-.041,9.674,0a1.708,1.708,0,0,1,1.308.445A1.708,1.708,0,0,1-1851.6,422.618Z" transform="translate(1893.923 -346.772)"/>
      <path id="Path_255" data-name="Path 255" d="M-1948.568,422.633a1.778,1.778,0,0,1-.617,1.282,1.778,1.778,0,0,1-1.359.419c-1.563.019-3.118,0-4.7,0h0c-1.563,0-3.117.015-4.7,0-1.223-.014-1.937-.65-1.952-1.693s.671-1.724,1.9-1.731q4.746-.038,9.5,0a1.721,1.721,0,0,1,1.349.429A1.723,1.723,0,0,1-1948.568,422.633Z" transform="translate(1972.046 -346.772)"/>
    </g>
  </g>
</svg>
