<svg xmlns="http://www.w3.org/2000/svg" xmlns:xlink="http://www.w3.org/1999/xlink" width="128" height="128" viewBox="0 0 128 128">
  <defs>
    <clipPath id="clip-path">
      <rect id="Rectangle_460" data-name="Rectangle 460" width="128" height="128" transform="translate(0 -0.301)" fill="#fff"/>
    </clipPath>
  </defs>
  <g id="Mask_Group_17" data-name="Mask Group 17" transform="translate(0 0.301)" clip-path="url(#clip-path)">
    <g id="printer" transform="translate(14.51 14.197)">
      <path id="Path_93" data-name="Path 93" d="M85.029,25.1H82.3V14.576A14.61,14.61,0,0,0,67.727,0H31.908A14.61,14.61,0,0,0,17.331,14.576V25.1H14.576A14.61,14.61,0,0,0,0,39.677V63.024A14.61,14.61,0,0,0,14.576,77.6H17.3V90.86a8.746,8.746,0,0,0,8.746,8.746H73.523a8.746,8.746,0,0,0,8.746-8.746V77.634h2.76A14.61,14.61,0,0,0,99.605,63.058V39.692A14.61,14.61,0,0,0,85.029,25.1ZM23.152,14.576A8.746,8.746,0,0,1,31.9,5.831H67.7a8.746,8.746,0,0,1,8.746,8.746V25.1H23.152ZM76.468,90.86a2.915,2.915,0,0,1-2.915,2.915H26.072a2.915,2.915,0,0,1-2.915-2.915V62.071H76.468ZM93.775,63.043a8.746,8.746,0,0,1-8.746,8.746H82.3V62.071h1.749a2.915,2.915,0,1,0,0-5.831h-68.5a2.915,2.915,0,0,0,0,5.831H17.3v9.718H14.576a8.746,8.746,0,0,1-8.746-8.746V39.692a8.746,8.746,0,0,1,8.746-8.756H85.029a8.746,8.746,0,0,1,8.746,8.746Z" transform="translate(0 0)"/>
      <path id="Path_94" data-name="Path 94" d="M645.976,1102.049H630.427a2.915,2.915,0,0,0,0,5.831h15.548a2.915,2.915,0,0,0,0-5.831Z" transform="translate(-588.404 -1033.365)"/>
      <path id="Path_95" data-name="Path 95" d="M645.976,1301.854H630.427a2.915,2.915,0,0,0,0,5.831h15.548a2.915,2.915,0,0,0,0-5.831Z" transform="translate(-588.404 -1220.716)"/>
      <path id="Path_96" data-name="Path 96" d="M215.186,602.536h-9.344a2.915,2.915,0,0,0,0,5.831h9.339a2.915,2.915,0,1,0,0-5.831Z" transform="translate(-190.279 -564.983)"/>
    </g>
  </g>
</svg>
