<svg xmlns="http://www.w3.org/2000/svg" xmlns:xlink="http://www.w3.org/1999/xlink" width="128" height="128" viewBox="0 0 128 128">
  <defs>
    <clipPath id="clip-path">
      <rect id="Rectangle_456" data-name="Rectangle 456" width="128" height="128" transform="translate(0 -0.301)" fill="#fff"/>
    </clipPath>
  </defs>
  <g id="Mask_Group_13" data-name="Mask Group 13" transform="translate(0 0.301)" clip-path="url(#clip-path)">
    <g id="pdf-file" transform="translate(14.544 13.104)">
      <path id="Path_97" data-name="Path 97" d="M256.457,637.742h-6.309a2.98,2.98,0,0,0-2.985,2.99l.044,22.655a2.985,2.985,0,0,0,5.965,0V656.51h3.286a9.381,9.381,0,1,0,0-18.758Zm0,12.793h-3.3v-6.824h3.32a3.414,3.414,0,1,1,0,6.828Z" transform="translate(-232.846 -596.188)"/>
      <path id="Path_98" data-name="Path 98" d="M646.961,637.742H640.73a2.98,2.98,0,0,0-2.985,2.99s.044,21.918.044,22a2.985,2.985,0,0,0,2.985,2.97h0c.189,0,4.63,0,6.406-.049a12.619,12.619,0,0,0,11.648-13.929C658.818,643.362,654.047,637.742,646.961,637.742Zm.131,21.947c-.772,0-2.1.024-3.344.034,0-2.592-.024-13.322-.029-16.016h3.242c5.475,0,5.9,6.135,5.9,8.013-.01,3.917-1.8,7.9-5.78,7.969Z" transform="translate(-597.977 -596.188)"/>
      <path id="Path_99" data-name="Path 99" d="M1089.244,640.173a2.985,2.985,0,0,0,0-5.965h-9.119a2.985,2.985,0,0,0-2.985,2.985v22.5a2.985,2.985,0,0,0,5.965,0v-8.479h5.411a2.985,2.985,0,0,0,0-5.965H1083.1v-5.072Z" transform="translate(-1008.747 -592.883)"/>
      <path id="Path_100" data-name="Path 100" d="M116.734,28.829h-2.189v-.849a14.851,14.851,0,0,0-4.091-10.26L98.068,4.654A14.972,14.972,0,0,0,87.25,0h-39.7A8.959,8.959,0,0,0,38.6,8.949v19.9H36.407a8.959,8.959,0,0,0-8.945,8.93V73.566a8.959,8.959,0,0,0,8.949,8.94H38.6V92.843a8.959,8.959,0,0,0,8.949,8.949H105.6a8.959,8.959,0,0,0,8.949-8.949V82.506h2.189a8.959,8.959,0,0,0,8.949-8.949V37.778A8.959,8.959,0,0,0,116.734,28.829ZM44.561,8.93a2.985,2.985,0,0,1,2.985-2.985h39.7a8.983,8.983,0,0,1,6.494,2.791l12.386,13.1a8.911,8.911,0,0,1,2.456,6.154v.835H44.561Zm64.02,83.918a2.985,2.985,0,0,1-2.985,2.985H47.545a2.985,2.985,0,0,1-2.985-2.985V82.506h64.02Zm11.133-19.287a2.985,2.985,0,0,1-2.985,2.985H36.412a2.985,2.985,0,0,1-2.985-2.985V37.778a2.985,2.985,0,0,1,2.985-2.985h80.322a2.985,2.985,0,0,1,2.985,2.985Z" transform="translate(-27.463 0)"/>
    </g>
  </g>
</svg>
