<svg xmlns="http://www.w3.org/2000/svg" xmlns:xlink="http://www.w3.org/1999/xlink" width="128" height="128" viewBox="0 0 128 128">
  <defs>
    <clipPath id="clip-path">
      <rect id="Rectangle_459" data-name="Rectangle 459" width="128" height="128" transform="translate(0 0.35)" fill="#fff"/>
    </clipPath>
  </defs>
  <g id="Mask_Group_16" data-name="Mask Group 16" transform="translate(0 -0.35)" clip-path="url(#clip-path)">
    <g id="Group_881" data-name="Group 881" transform="translate(9.516 14.654)">
      <path id="Path_248" data-name="Path 248" d="M-1230.087,446.386a27.971,27.971,0,0,0-5.553-11.781,1.62,1.62,0,0,0-1.1-.791,1.619,1.619,0,0,0-1.315.318c-.762.606-.8,1.5-.106,2.462.125.175.265.334.391.509a25.181,25.181,0,0,1,3.984,22.724c-2.01,7.08-7.426,11.566-12.392,16.473-.3-.277-.566-.509-.817-.748-1.643-1.584-3.274-3.184-4.936-4.748a1.569,1.569,0,0,0-1.167-.576,1.57,1.57,0,0,0-1.2.5,1.658,1.658,0,0,0-.429,1.225,1.656,1.656,0,0,0,.585,1.159c.345.36.71.691,1.074,1.042q4.819,4.718,9.629,9.433a5,5,0,0,1,1.444,5.184,5.1,5.1,0,0,1-3.7,3.582,5.1,5.1,0,0,1-4.936-1.473c-4.289-4.237-8.521-8.521-12.794-12.782a8.555,8.555,0,0,0-.774-.736,1.531,1.531,0,0,0-2.13.057,1.529,1.529,0,0,0-.512,1.087,1.531,1.531,0,0,0,.431,1.121,8.121,8.121,0,0,0,.668.693l12.484,12.486c.831.831,1.7,1.628,2.473,2.516a5.086,5.086,0,0,1,1.064,4.9,5.087,5.087,0,0,1-3.651,3.433,5.174,5.174,0,0,1-5.153-1.6q-7.2-7.246-14.439-14.456c-.89-.89-1.823-.978-2.528-.289s-.637,1.657.237,2.538c1.42,1.446,2.874,2.876,4.308,4.315,2.876,2.876,5.783,5.719,8.614,8.637a5.1,5.1,0,0,1,1.354,4.92,5.094,5.094,0,0,1-3.591,3.625,4.857,4.857,0,0,1-5.092-1.42,63.946,63.946,0,0,1-6.628-7.217,7.89,7.89,0,0,0-7.613-3.162c-.947-7.258-2.542-8.841-9.653-9.592a8.329,8.329,0,0,0-2.367-7.018,8.6,8.6,0,0,0-7.115-2.445v-1.165a8.322,8.322,0,0,0-3.257-6.672,8.322,8.322,0,0,0-7.288-1.416,9.916,9.916,0,0,0-4.571,3.03c-1,1.046-2.029,2.066-3.077,3.139-1.006-1.018-1.873-1.917-2.762-2.791a1.673,1.673,0,0,0-1.177-.661,1.674,1.674,0,0,0-1.282.424c-.753.71-.71,1.628.182,2.518s1.858,1.761,2.89,2.736c-3.182,2.6-5.167,5.6-4.135,9.688a8.231,8.231,0,0,0,7.913,6.453,8.5,8.5,0,0,0,2.012,8.831,8.5,8.5,0,0,0,8.834,2,8.373,8.373,0,0,0,3.643,6.682,8.583,8.583,0,0,0,7.636,1,8.49,8.49,0,0,0,5.288,7.565,8.491,8.491,0,0,0,9.066-1.73,8.256,8.256,0,0,0,9.011,1.723,8.245,8.245,0,0,0,5.248-7.523,8.6,8.6,0,0,0,7.632-1.026,8.594,8.594,0,0,0,3.747-6.728,8.332,8.332,0,0,0,8.784-2.017,8.377,8.377,0,0,0,1.974-8.758,1.438,1.438,0,0,1,.281-.109,7.989,7.989,0,0,0,7.39-5.565,8.122,8.122,0,0,0-2.341-9.064c-.817-.788-1.657-1.55-2.554-2.384,2.057-2.055,3.967-3.974,5.889-5.878a28.031,28.031,0,0,0,7.456-12.415c.523-1.839.791-3.749,1.184-5.629v-4.921C-1229.656,448.68-1229.845,447.527-1230.087,446.386ZM-1323.063,491a5.026,5.026,0,0,1-1.537-3.54,5.029,5.029,0,0,1,1.426-3.587q4.079-4.237,8.32-8.32a4.8,4.8,0,0,1,5.553-.947,4.791,4.791,0,0,1,3.044,4.178,5.175,5.175,0,0,1-1.42,4.024c-2.734,2.762-5.461,5.532-8.251,8.24a5.049,5.049,0,0,1-7.135-.047Zm14.849,11.409a5.237,5.237,0,0,1-4.1,1.387,4.708,4.708,0,0,1-4.024-2.876,4.629,4.629,0,0,1,.691-5.485q5.127-5.366,10.5-10.508a4.952,4.952,0,0,1,6.952.291,5.032,5.032,0,0,1,.083,7.052c-3.319,3.423-6.72,6.777-10.1,10.145Zm11.08,7.916a5,5,0,0,1-6.891-.279,4.971,4.971,0,0,1-.294-6.876q4.261-4.517,8.789-8.758a11.327,11.327,0,0,1,3.092-1.467c.045.087.088.18.135.267a4.886,4.886,0,0,1,4.6,2.928,4.666,4.666,0,0,1-.732,5.484q-4.23,4.469-8.708,8.7Zm11.388,7.634a9.108,9.108,0,0,1-2.653,1.33,5.331,5.331,0,0,1-5.272-2.9A4.654,4.654,0,0,1-1293,510.9q3.331-3.607,6.943-6.955a4.971,4.971,0,0,1,6.876.263,5.032,5.032,0,0,1,.253,6.962c-2.185,2.341-4.443,4.63-6.815,6.781Zm13.507-2.994a4.77,4.77,0,0,1-3.489,4.043,4.888,4.888,0,0,1-5.11-1.207c2.154-2.677,5.385-4.426,6.19-8.155a5.293,5.293,0,0,1,2.41,5.316Z" transform="translate(1339.012 -423.811)"/>
      <path id="Path_249" data-name="Path 249" d="M-1283.936,393.231c-.594.828-1.565.85-2.727.04a23.5,23.5,0,0,0-8.642-3.816,24.429,24.429,0,0,0-23.126,6.308c-7.442,7.125-14.643,14.5-21.943,21.777-1.165,1.162-1.122,1.962.109,3.042a8.6,8.6,0,0,0,11.667-.339c2.921-2.829,5.762-5.738,8.637-8.611,1.337-1.335,1.943-1.333,3.314,0l15.86,15.3c.18.175.369.339.537.523a1.658,1.658,0,0,1,.558,1.172,1.657,1.657,0,0,1-.458,1.214,1.622,1.622,0,0,1-1.162.46,1.621,1.621,0,0,1-1.144-.5c-.3-.253-.573-.537-.857-.807q-7.113-6.883-14.226-13.758c-.237-.22-.473-.428-.774-.71-1.759,1.763-3.487,3.5-5.227,5.236-1.084,1.084-2.147,2.194-3.288,3.217a11.836,11.836,0,0,1-16.188-.547,4.792,4.792,0,0,1-1.4-3.532,4.791,4.791,0,0,1,1.611-3.443q6.154-6.185,12.332-12.328c.275-.275.639-.45.516-.644a88.8,88.8,0,0,0-7.392-7.712,24.1,24.1,0,0,0-25.266-4.239,24.1,24.1,0,0,0-15.971,19.926,24.421,24.421,0,0,0,5.934,20.267c.137.163.289.317.419.473a1.608,1.608,0,0,1,.422,1.174,1.608,1.608,0,0,1-.545,1.122,1.534,1.534,0,0,1-1.188.4,1.534,1.534,0,0,1-1.089-.62,53.956,53.956,0,0,1-3.915-5.458,25.937,25.937,0,0,1-3.359-10.507,6.441,6.441,0,0,0-.192-.821v-4.929a51.7,51.7,0,0,1,1.307-5.918,27.574,27.574,0,0,1,23.391-19.744,27.491,27.491,0,0,1,24.331,8.356c1.894,1.88,3.775,3.787,5.726,5.733.322-.3.6-.556.876-.821,2.54-2.452,4.914-5.1,7.641-7.319a28.351,28.351,0,0,1,34.048-1.2C-1283.628,391.455-1283.325,392.386-1283.936,393.231Z" transform="translate(1382.104 -385.545)"/>
    </g>
  </g>
</svg>
