<svg xmlns="http://www.w3.org/2000/svg" xmlns:xlink="http://www.w3.org/1999/xlink" width="128" height="128" viewBox="0 0 128 128">
  <defs>
    <clipPath id="clip-path">
      <rect id="Rectangle_461" data-name="Rectangle 461" width="128" height="128" transform="translate(0 0.049)" fill="#fff"/>
    </clipPath>
  </defs>
  <g id="Mask_Group_18" data-name="Mask Group 18" transform="translate(0 -0.049)" clip-path="url(#clip-path)">
    <g id="Group_877" data-name="Group 877" transform="translate(27.523 14.953)">
      <path id="Path_268" data-name="Path 268" d="M-1240.986,581.06a4.844,4.844,0,0,1-3.641,4.8h-66.291a4.925,4.925,0,0,1-3.5-3.568,6.376,6.376,0,0,1-.135-1.316q0-25.766,0-51.526a4.591,4.591,0,0,1,1.324-3.533,4.592,4.592,0,0,1,3.523-1.349h8.525c1.232,0,1.922.527,1.946,1.493s-.69,1.58-1.959,1.58h-8.333c-1.437,0-1.956.527-1.956,1.964v51.239c0,1.44.527,1.962,1.959,1.962h63.508c1.443,0,1.969-.527,1.969-1.954V529.61c0-1.445-.526-1.967-1.953-1.972h-8.62a1.53,1.53,0,0,1-1.193-.4,1.53,1.53,0,0,1-.487-1.161,1.55,1.55,0,0,1,.511-1.1,1.551,1.551,0,0,1,1.147-.4h.19c2.9,0,5.813-.016,8.718,0a4.568,4.568,0,0,1,3.421,1.349A4.567,4.567,0,0,1-1241,529.36Q-1240.979,555.2-1240.986,581.06Z" transform="translate(1314.564 -487.763)"/>
      <path id="Path_269" data-name="Path 269" d="M-1154.321,303.664a3.95,3.95,0,0,0-1.959-3.625,2.08,2.08,0,0,1-1.116-2.2,49.587,49.587,0,0,0-.413-8.194,15.126,15.126,0,0,0-15.732-11.961,15.221,15.221,0,0,0-14.286,13.135c-.3,2.588-.132,5.224-.224,7.838a1.3,1.3,0,0,1-.49.958,4.74,4.74,0,0,0-2.559,4.476q0,10.391,0,20.779a4.6,4.6,0,0,0,1.345,3.571,4.6,4.6,0,0,0,3.578,1.326h4.271v16.64a4.579,4.579,0,0,0,1.335,3.479,4.578,4.578,0,0,0,3.48,1.334q4.358.018,8.715,0a4.593,4.593,0,0,0,3.525-1.34,4.593,4.593,0,0,0,1.333-3.528V329.771c1.656,0,3.186.032,4.713,0a4.526,4.526,0,0,0,4.476-4.476Q-1154.263,314.482-1154.321,303.664Zm-30.047-14.452a12.3,12.3,0,0,1,13.193-8.378,12.275,12.275,0,0,1,10.732,11.945c.026,2.069,0,4.142,0,6.277h-1.53c0-1.961.074-3.907-.026-5.84a20.356,20.356,0,0,0-.6-3.757,1.433,1.433,0,0,0-.7-.882,1.432,1.432,0,0,0-1.121-.1,1.617,1.617,0,0,0-1.079,1.869c.263,2.872.45,5.756.679,8.733H-1180.2a50.9,50.9,0,0,1,.063-7.559,7.508,7.508,0,0,1,3.972-5.392,7.509,7.509,0,0,1,6.7-.077c1.446.666,2.27.526,2.7-.427s-.05-1.73-1.44-2.37a10.734,10.734,0,0,0-10.209.674,10.734,10.734,0,0,0-5.007,8.922c-.026,2.043,0,4.081,0,6.2h-1.556a38.5,38.5,0,0,1,.613-9.834Zm17.8,43.524v13.3c0,1.643-.477,2.13-2.08,2.133h-8.425a1.531,1.531,0,0,1-1.756-1.677c-.016-5.529,0-11.032,0-16.624h12.261Zm9.2-8.038c0,1.5-.511,2.012-2.011,2.014h-26.629c-1.5,0-2.006-.511-2.009-2.017V304.2c0-1.5.506-2.009,2.012-2.009h26.629c1.5,0,2.011.508,2.011,2.009q0,10.245,0,20.489Z" transform="translate(1209.493 -277.656)"/>
      <path id="Path_270" data-name="Path 270" d="M-1251.972,835.05c0-1.251-.566-1.814-1.817-1.817h-17.817c-1.253,0-1.809.563-1.817,1.817v5.458c0,1.374.54,1.911,1.914,1.914h17.722c1.256,0,1.809-.561,1.817-1.817Q-1251.948,837.831-1251.972,835.05Zm-3.136,4.244h-15.208V836.34h15.208Z" transform="translate(1279.561 -750.458)"/>
      <path id="Path_271" data-name="Path 271" d="M-1097.349,465.964a5.729,5.729,0,0,0-4.9-3.186,6.131,6.131,0,0,0-5.506,2.722,6.132,6.132,0,0,0-.384,6.13,6.639,6.639,0,0,1,.838,3.7c-.024.448,0,.9,0,1.34a4.6,4.6,0,0,0,4.547,4.508,4.576,4.576,0,0,0,4.636-4.5c.026-.927-.047-1.843.029-2.775a3.727,3.727,0,0,1,.482-1.58,6.038,6.038,0,0,0,.26-6.353Zm-2.333,3.065a8.7,8.7,0,0,1-.808,1.98,6.806,6.806,0,0,0-.656,1.8c-.105,1.169-.019,2.354-.034,3.534-.016,1.1-.645,1.793-1.58,1.767s-1.464-.7-1.488-1.756V474.44c0-.445-.029-.893,0-1.337a2.758,2.758,0,0,0-.79-2.246,2.9,2.9,0,0,1-.182-3.7,3.025,3.025,0,0,1,3.473-1.121A2.9,2.9,0,0,1-1099.681,469.029Z" transform="translate(1139.5 -435.191)"/>
    </g>
  </g>
</svg>
