<svg xmlns="http://www.w3.org/2000/svg" xmlns:xlink="http://www.w3.org/1999/xlink" width="128" height="128" viewBox="0 0 128 128">
  <defs>
    <clipPath id="clip-path">
      <rect id="Rectangle_464" data-name="Rectangle 464" width="128" height="128" transform="translate(0 -0.301)" fill="#fff"/>
    </clipPath>
  </defs>
  <g id="Mask_Group_21" data-name="Mask Group 21" transform="translate(0 0.301)" clip-path="url(#clip-path)">
    <g id="Group_790" data-name="Group 790" transform="translate(15.61 16.197)">
      <g id="Group_789" data-name="Group 789">
        <path id="Path_243" data-name="Path 243" d="M60.067,65.036H56.883V63.443A3.187,3.187,0,0,0,53.7,60.256H50.512V45.839a20.707,20.707,0,1,0-3.187,0V60.258h-4.78a1.593,1.593,0,0,0-1.127.466L28.208,73.935V73a1.593,1.593,0,0,0-1.593-1.593H23.426V69.814a1.593,1.593,0,0,0-1.593-1.593H18.65V64.956a15.93,15.93,0,1,0-3.187,0v3.272H9.092a1.593,1.593,0,0,0-1.127.466L0,76.654l2.252,2.252L9.761,71.4H20.253v6.371h-3.2V74.594H13.87V88.272L7.965,94.177A1.593,1.593,0,0,0,7.5,95.314v3.172a1.593,1.593,0,0,0,1.593,1.593H34.58a1.593,1.593,0,0,0,1.127-.466l5.905-5.905H60.07a4.778,4.778,0,0,0,4.778-4.78V69.816a4.78,4.78,0,0,0-4.78-4.78ZM4.312,49.107A12.745,12.745,0,1,1,17.056,61.849,12.746,12.746,0,0,1,4.312,49.107ZM31.4,25.21A17.523,17.523,0,1,1,48.921,42.733,17.523,17.523,0,0,1,31.4,25.21ZM23.426,74.594h1.593V77.12l-1.593,1.6Zm-6.369,6.371h4.119l-4.119,4.121ZM33.919,96.9H10.686v-.935L26.615,80.033,38.7,92.117Zm13.4-6.371h-5.71L28.867,77.781,43.2,63.443H53.7V77.781H50.512V71.4H47.325Zm14.336-1.593a1.593,1.593,0,0,1-1.593,1.593H50.512V87.339H61.663Zm0-4.78H50.512V80.966H61.663Zm0-6.371H56.883V74.594h4.778Zm0-6.371H56.883V68.228H60.07a1.593,1.593,0,0,1,1.593,1.593Z" transform="translate(0 -4.486)"/>
        <path id="Path_244" data-name="Path 244" d="M306.488,85.94l-14.8,14.8L286.437,95.5l-2.252,2.252,6.371,6.371a1.593,1.593,0,0,0,2.252,0l15.93-15.93Z" transform="translate(-249.139 -75.899)"/>
        <path id="Path_245" data-name="Path 245" d="M548.142,285.117h-4.778v-3.26a15.93,15.93,0,1,0-3.187,0v3.267a3.187,3.187,0,0,0-3.187,3.187V289.9h-3.2a4.778,4.778,0,0,0-4.778,4.78v20.71H532.2v-3.187h11.152v3.187h3.187V293.082h-3.187v3.187h-3.187V288.3h7.306l7.5,7.5,2.252-2.252-7.965-7.965a1.594,1.594,0,0,0-1.118-.469Zm-15.929,9.558a1.593,1.593,0,0,1,1.594-1.593h3.187v3.187h-4.778Zm11.152,14.336H532.212v-3.187h11.152Zm0-9.558v3.187H532.212v-3.187ZM529.016,266a12.745,12.745,0,1,1,12.745,12.745A12.745,12.745,0,0,1,529.016,266Z" transform="translate(-460.981 -219.786)"/>
        <path id="Path_246" data-name="Path 246" d="M574.278,322.824l-3.66-3.66-2.252,2.252,4.778,4.78a1.594,1.594,0,0,0,2.252,0l11.957-11.957-2.252-2.252Z" transform="translate(-498.278 -274.084)"/>
        <path id="Path_247" data-name="Path 247" d="M57.578,309.906l-3.66-3.66L51.665,308.5l4.778,4.78a1.593,1.593,0,0,0,2.252,0l11.957-11.957L68.4,299.069Z" transform="translate(-45.301 -262.757)"/>
      </g>
    </g>
  </g>
</svg>
