<svg xmlns="http://www.w3.org/2000/svg" width="24" height="24" viewBox="0 0 24 24">
  <g fill="none" fill-rule="evenodd">
    <rect width="24" height="24"/>
    <path fill="#222" fill-rule="nonzero" d="M19.8087707,18.4033717 L20.4194153,19.0175313 L19.0052018,20.4317448 L15.1976503,16.6022768 C14.0281284,17.4799741 12.5747935,18 11,18 C7.13400675,18 4,14.8659932 4,11 C4,7.13400675 7.13400675,4 11,4 C14.8659932,4 18,7.13400675 18,11 C18,12.5650636 17.4863803,14.0101648 16.6185045,15.1759401 L19.7115138,18.2902994 C19.7471786,18.3259642 19.7796019,18.3637867 19.8087707,18.4033717 Z M11,16 C13.7614237,16 16,13.7614237 16,11 C16,8.23857625 13.7614237,6 11,6 C8.23857625,6 6,8.23857625 6,11 C6,13.7614237 8.23857625,16 11,16 Z"/>
  </g>
</svg>
