<svg xmlns="http://www.w3.org/2000/svg" xmlns:xlink="http://www.w3.org/1999/xlink" width="128" height="128" viewBox="0 0 128 128">
  <defs>
    <clipPath id="clip-path">
      <rect id="Rectangle_457" data-name="Rectangle 457" width="128" height="128" transform="translate(0 0.049)" fill="#fff"/>
    </clipPath>
  </defs>
  <g id="Mask_Group_14" data-name="Mask Group 14" transform="translate(0 -0.049)" clip-path="url(#clip-path)">
    <g id="Group_876" data-name="Group 876" transform="translate(8.731 22.789)">
      <path id="Path_256" data-name="Path 256" d="M-1366.569,91.484c-1.229.093-2.468,0-3.747,0V73.632c0-.356.017-.719,0-1.072a1.705,1.705,0,0,0-1.742-1.665,1.705,1.705,0,0,0-1.665,1.632c-.03.333,0,.643,0,.966V91.484h-42.471a5.169,5.169,0,0,0-4.116,1.491,5.168,5.168,0,0,0-1.5,4.114v21.855h-8.217c-1.469,0-2.072.616-2.078,2.095v5.472c0,2.331.4,2.731,2.741,2.731h7.49c.077,1.192.146,2.275.217,3.394-.2,0-.373.033-.546.033h-42.155c-1.492,0-2.072-.636-2.072-2.215V86.8c0-1.605.583-2.178,2.208-2.178h15.654c.31,0,.619.033,1,.057v18.175a5.208,5.208,0,0,0,1.5,4.331,5.209,5.209,0,0,0,4.344,1.465h5.579a5.2,5.2,0,0,0,4.229-1.48,5.2,5.2,0,0,0,1.51-4.218V84.619h17.106a1.665,1.665,0,0,1,1.762,1.542c.263,1.372.963,2.028,2,1.862,1.106-.177,1.665-1.2,1.375-2.591a5.176,5.176,0,0,0-5.392-4.253h-50.841a7.189,7.189,0,0,0-1.489.15,5.512,5.512,0,0,0-4,3.923v46.8a5.529,5.529,0,0,0,4.1,3.953,7,7,0,0,0,1.382.12h98.891a5.472,5.472,0,0,0,5.479-4.083V95.573A5.742,5.742,0,0,0-1366.569,91.484Zm-55.314,34.285h-6.741v-3.331h6.741ZM-1444.1,84.956a1.316,1.316,0,0,1,.1-.293h10.171v18.195c0,1.835-.536,2.371-2.331,2.375-2,0-4,.017-6,0a1.7,1.7,0,0,1-1.4-.445,1.7,1.7,0,0,1-.529-1.37c-.053-6.162-.037-12.326-.033-18.461Zm48.043,10.015h10.292v11.56c0,1.525-.609,2.122-2.148,2.125-2.072,0-4.14.02-6.211,0-1.179,0-1.908-.619-1.915-1.7-.05-3.957-.03-7.913-.03-11.983Zm30.358,37.722h-50.524c-1.535,0-2.148-.606-2.148-2.138V97.082c0-1.552.586-2.138,2.135-2.142h16.739v11.517a5.2,5.2,0,0,0,1.5,4.162,5.2,5.2,0,0,0,4.162,1.5h5.9a5.176,5.176,0,0,0,4.109-1.515,5.176,5.176,0,0,0,1.476-4.123c0-3.787,0-7.574,0-11.46.333-.023.666-.063.959-.063h15.654c1.688,0,2.261.566,2.261,2.241v33.256c.007,1.662-.56,2.238-2.238,2.238Z" transform="translate(1469.876 -53.71)"/>
      <path id="Path_257" data-name="Path 257" d="M-1171.9-40.036a5.169,5.169,0,0,0-1.517-4.048,5.169,5.169,0,0,0-4.062-1.48h-53.955a5.209,5.209,0,0,0-4.214,1.518,5.21,5.21,0,0,0-1.478,4.228q0,7.51,0,15.017a15.642,15.642,0,0,0,.017,1.715,1.639,1.639,0,0,0,.994,1.417,1.639,1.639,0,0,0,1.711-.265,2.736,2.736,0,0,0,.683-1.792c.05-5.362.03-10.724.03-16.09,0-1.762.549-2.311,2.3-2.311h18.3V-23.48a5.137,5.137,0,0,0,1.5,3.893,5.139,5.139,0,0,0,3.9,1.493q3.111.017,6.222,0a5.183,5.183,0,0,0,4.053-1.52,5.182,5.182,0,0,0,1.486-4.066V-42.125h18.814c1.166,0,1.765.7,1.775,1.958.017,2.072,0,4.147,0,6.218,0,1.332.689,2.125,1.759,2.095s1.665-.8,1.665-2.078C-1171.887-35.947-1171.89-38-1171.9-40.036Zm-29.822,18.5h-6a1.7,1.7,0,0,1-1.4-.447,1.7,1.7,0,0,1-.526-1.368q-.024-9.226,0-18.451a1.387,1.387,0,0,1,.093-.293h10.181V-23.9c0,1.812-.553,2.358-2.355,2.365Z" transform="translate(1271.444 45.591)"/>
      <path id="Path_258" data-name="Path 258" d="M-870.664,398.916c0-1.469-.623-2.075-2.1-2.078h-12.989c-1.462,0-2.075.626-2.082,2.1v6.115c0,1.469.62,2.075,2.1,2.082h13.1a1.749,1.749,0,0,0,1.488-.5,1.748,1.748,0,0,0,.483-1.495Q-870.619,402.027-870.664,398.916Zm-3.507,4.739h-10.148v-3.3h10.161Z" transform="translate(973.625 -331.583)"/>
    </g>
  </g>
</svg>
