<svg xmlns="http://www.w3.org/2000/svg" width="24" height="24" viewBox="0 0 24 24">
  <g fill="none" fill-rule="evenodd">
    <rect width="24" height="24"/>
    <path fill="#222" fill-rule="nonzero" d="M6,16 L18,16 L18,12 C18,8.6862915 15.3137085,6 12,6 C8.6862915,6 6,8.6862915 6,12 L6,16 Z M13,4.06189375 C16.9463116,4.55399184 20,7.92038235 20,12 L20,18 L4,18 L4,12 C4,7.92038235 7.05368842,4.55399184 11,4.06189375 L11,3 C11,2.44771525 11.4477153,2 12,2 C12.5522847,2 13,2.44771525 13,3 L13,4.06189375 Z M10,19 L14,19 C14,20.1045695 13.1045695,21 12,21 C10.8954305,21 10,20.1045695 10,19 Z"/>
  </g>
</svg>
