<svg xmlns="http://www.w3.org/2000/svg" xmlns:xlink="http://www.w3.org/1999/xlink" width="128" height="128" viewBox="0 0 128 128">
  <defs>
    <clipPath id="clip-path">
      <rect id="Rectangle_453" data-name="Rectangle 453" width="128" height="128" transform="translate(0 0.049)" fill="#fff"/>
    </clipPath>
  </defs>
  <g id="Mask_Group_10" data-name="Mask Group 10" transform="translate(0 -0.049)" clip-path="url(#clip-path)">
    <g id="Group_805" data-name="Group 805" transform="translate(13.861 13.859)">
      <path id="Path_296" data-name="Path 296" d="M349.79,134.355h25.858a1.959,1.959,0,0,0,0-3.917H349.79a1.959,1.959,0,1,0,0,3.917Z" transform="translate(-316.489 -118.685)"/>
      <path id="Path_297" data-name="Path 297" d="M464.649,220.3H447.618a1.959,1.959,0,0,0,0,3.917h17.032a1.959,1.959,0,1,0,0-3.917Z" transform="translate(-405.491 -200.447)"/>
      <path id="Path_298" data-name="Path 298" d="M366.64,669.579H349.792a1.959,1.959,0,0,0,0,3.917H366.64a1.959,1.959,0,0,0,0-3.917Z" transform="translate(-316.491 -609.252)"/>
      <path id="Path_299" data-name="Path 299" d="M375.647,310.154H349.79a1.959,1.959,0,1,0,0,3.917h25.858a1.959,1.959,0,1,0,0-3.917Z" transform="translate(-316.489 -282.208)"/>
      <path id="Path_300" data-name="Path 300" d="M349.783,224.213a1.959,1.959,0,0,0,0-3.917h0a1.959,1.959,0,1,0,0,3.917Z" transform="translate(-316.482 -200.447)"/>
      <path id="Path_301" data-name="Path 301" d="M349.79,403.928h16.848a1.959,1.959,0,1,0,0-3.917H349.79a1.959,1.959,0,0,0,0,3.917Z" transform="translate(-316.489 -363.967)"/>
      <path id="Path_302" data-name="Path 302" d="M375.647,489.869H349.79a1.959,1.959,0,1,0,0,3.917h25.858a1.959,1.959,0,1,0,0-3.917Z" transform="translate(-316.489 -445.729)"/>
      <path id="Path_303" data-name="Path 303" d="M375.647,579.725H349.79a1.959,1.959,0,0,0,0,3.917h25.858a1.959,1.959,0,1,0,0-3.917Z" transform="translate(-316.489 -527.488)"/>
      <path id="Path_304" data-name="Path 304" d="M78.748,57.2c-.661,0-1.315.031-1.959.089V9.793a9.739,9.739,0,0,0-2.906-6.956A9.667,9.667,0,0,0,67.041,0H9.793A9.807,9.807,0,0,0,0,9.793v3.917a1.959,1.959,0,0,0,1.959,1.959H15.669V82.4a9.807,9.807,0,0,0,9.793,9.793H61.911a21.542,21.542,0,1,0,16.821-35ZM15.669,11.752H3.917V9.793A5.883,5.883,0,0,1,9.793,3.917h0a5.883,5.883,0,0,1,5.876,5.876ZM31.339,82.4a5.876,5.876,0,1,1-11.752,0V9.793a9.742,9.742,0,0,0-1.962-5.876H66.983a5.879,5.879,0,0,1,5.886,5.876v48.22A21.644,21.644,0,0,0,59.778,68.533a1.955,1.955,0,0,0-.62-.1H33.3a1.959,1.959,0,1,0,0,3.917H58.167a21.4,21.4,0,0,0-.855,4.18H33.3a1.959,1.959,0,0,0-1.959,1.959Zm1.955,5.876A9.746,9.746,0,0,0,35.256,82.4V80.445H57.261a21.385,21.385,0,0,0,2.16,7.835H33.3Zm45.451,8.1A17.631,17.631,0,1,1,96.376,78.745,17.631,17.631,0,0,1,78.745,96.376Z" transform="translate(0 0)"/>
      <path id="Path_305" data-name="Path 305" d="M752.2,757.413a5.883,5.883,0,0,0-8.312,0l-5.406,5.406-.92-.92a5.877,5.877,0,0,0-8.311,8.312l5.075,5.075a5.883,5.883,0,0,0,8.312,0l9.562-9.562a5.876,5.876,0,0,0,0-8.312Zm-2.769,5.539-9.562,9.562a1.962,1.962,0,0,1-2.77,0l-5.075-5.076a1.958,1.958,0,1,1,2.77-2.769l2.3,2.3a1.959,1.959,0,0,0,2.769,0l6.792-6.792a1.958,1.958,0,1,1,2.77,2.77Z" transform="translate(-661.987 -687.603)"/>
    </g>
  </g>
</svg>
