<svg xmlns="http://www.w3.org/2000/svg" xmlns:xlink="http://www.w3.org/1999/xlink" width="128" height="128" viewBox="0 0 128 128">
  <defs>
    <clipPath id="clip-path">
      <rect id="Rectangle_458" data-name="Rectangle 458" width="128" height="128" fill="#fff"/>
    </clipPath>
  </defs>
  <g id="Mask_Group_15" data-name="Mask Group 15" clip-path="url(#clip-path)">
    <g id="Group_803" data-name="Group 803" transform="translate(14.19 9.268)">
      <path id="Path_287" data-name="Path 287" d="M710.061,758.93a6.415,6.415,0,0,0-9.071,0l-5.9,5.9-1-1a6.414,6.414,0,1,0-9.071,9.071l5.54,5.539a6.414,6.414,0,0,0,9.071,0l10.431-10.43a6.422,6.422,0,0,0,0-9.078Zm-3.025,6.046-10.43,10.43a2.138,2.138,0,0,1-3.021,0l-5.539-5.539a2.138,2.138,0,1,1,3.021-3.021l2.515,2.514a2.138,2.138,0,0,0,3.025,0l7.413-7.413a2.138,2.138,0,0,1,3.021,3.021Z" transform="translate(-620.561 -682.743)"/>
      <path id="Path_288" data-name="Path 288" d="M135.518,66.222c.022-.562.034-1.118.034-1.658a44.654,44.654,0,0,0-8.635-26.449l4.47-4.47a4.284,4.284,0,0,0,0-6.046L127.6,23.841a4.247,4.247,0,0,0-3.025-1.252h0a4.247,4.247,0,0,0-3.025,1.252l-4.47,4.47a44.657,44.657,0,0,0-20.03-8.2V13.895h4.276A4.28,4.28,0,0,0,105.6,9.622V4.276A4.28,4.28,0,0,0,101.328,0H79.95a4.28,4.28,0,0,0-4.277,4.276V9.622a4.28,4.28,0,0,0,4.277,4.273h4.276v6.221a44.661,44.661,0,0,0-20.023,8.2l-4.47-4.47a4.28,4.28,0,0,0-6.046,0L49.895,27.6a4.28,4.28,0,0,0,0,6.046l4.47,4.47a44.851,44.851,0,0,0-1.777,50.29,2.138,2.138,0,0,0,3.621-2.276,40.6,40.6,0,1,1,75.043-22.1,23.338,23.338,0,0,0-6.471-1.516,34.182,34.182,0,1,0-22.891,34.357,23.641,23.641,0,0,0,3.9,5.387,40.668,40.668,0,0,1-36.726-3.274,2.138,2.138,0,1,0-2.276,3.621,44.929,44.929,0,0,0,42.642,2.738,23.507,23.507,0,1,0,26.079-39.118ZM124.577,26.847l3.781,3.781L124.2,34.782A45.29,45.29,0,0,0,120.424,31ZM79.95,4.276h21.379V9.622H79.95ZM52.92,30.628,56.7,26.847,60.854,31a45.326,45.326,0,0,0-3.781,3.781ZM88.5,19.721V13.895h4.276v5.826c-.708-.034-1.423-.052-2.138-.052S89.21,19.688,88.5,19.721Zm4.276,74.7V92.358a2.138,2.138,0,0,0-4.276,0v2.06A29.8,29.8,0,0,1,71.05,87.169L72.5,85.72a2.139,2.139,0,0,0-3.025-3.025l-1.449,1.449a29.8,29.8,0,0,1-7.242-17.452h2.06a2.138,2.138,0,1,0,0-4.276h-2.06a29.8,29.8,0,0,1,7.242-17.452l1.449,1.449A2.139,2.139,0,0,0,72.5,43.387L71.05,41.938A29.8,29.8,0,0,1,88.5,34.7v2.06a2.138,2.138,0,0,0,4.276,0V34.711a29.8,29.8,0,0,1,17.437,7.257L108.782,43.4a2.139,2.139,0,0,0,3.025,3.025l1.434-1.434a29.8,29.8,0,0,1,7.26,17.542,23.524,23.524,0,0,0-20.25,30.386,29.663,29.663,0,0,1-7.469,1.49Zm29.932,10.766a19.24,19.24,0,1,1,19.24-19.24,19.24,19.24,0,0,1-19.24,19.24Z" transform="translate(-45.731 0)"/>
      <path id="Path_289" data-name="Path 289" d="M434.345,526.554a7.491,7.491,0,0,0-7.484,7.484,2.138,2.138,0,0,0,4.276,0,3.207,3.207,0,1,1,5.453,2.291,11.093,11.093,0,0,0-4.384,7.432,2.138,2.138,0,1,0,4.276,0c0-.954.79-2.067,3.129-4.407a7.484,7.484,0,0,0-5.267-12.8Z" transform="translate(-389.447 -474.867)"/>
      <path id="Path_290" data-name="Path 290" d="M483.453,745.369a2.138,2.138,0,0,0-2.138,2.138h0a2.138,2.138,0,1,0,2.138-2.138Z" transform="translate(-438.548 -672.203)"/>
      <path id="Path_291" data-name="Path 291" d="M176.829,944.464a2.138,2.138,0,0,0-3.01.276h0a2.138,2.138,0,1,0,3.014-.276Z" transform="translate(-160.786 -851.305)"/>
    </g>
  </g>
</svg>
