<svg xmlns="http://www.w3.org/2000/svg" xmlns:xlink="http://www.w3.org/1999/xlink" width="128" height="128" viewBox="0 0 128 128">
  <defs>
    <clipPath id="clip-path">
      <rect id="Rectangle_455" data-name="Rectangle 455" width="128" height="128" transform="translate(0 0.35)" fill="#fff"/>
    </clipPath>
  </defs>
  <g id="Mask_Group_12" data-name="Mask Group 12" transform="translate(0 -0.35)" clip-path="url(#clip-path)">
    <g id="Group_753" data-name="Group 753" transform="translate(8.158 12.674)">
      <g id="Group_752" data-name="Group 752">
        <path id="Path_216" data-name="Path 216" d="M-664.472,618.263c-3.969.086-7.963.024-11.948.024h-.818v-20.03c0-1.557-.678-2.247-2.226-2.247h-19.728a2.415,2.415,0,0,0-1.67.611c-1.392,1.221-2.812,2.443-4.2,3.664a1.61,1.61,0,0,1-1.154.44c-2.443-.021-4.9,0-7.353,0-.882,0-.882,0-.882-.895v-23.1a3.078,3.078,0,0,0-.986-2.391q-5.627-5.5-11.19-11.068a2.679,2.679,0,0,0-2.028-.828h-42.267c-1.557,0-2.25.693-2.25,2.235V637a1.939,1.939,0,0,0,.541,1.672,1.939,1.939,0,0,0,1.67.548h5.084c.214,0,.428.021.684.036v13.166a12.6,12.6,0,0,0,.174,2.2A12.476,12.476,0,0,0-752.472,665.1H-689.5a14.827,14.827,0,0,0,2.385-.144A15.693,15.693,0,0,0-674,654.2c3.927-10.992,7.7-22.024,11.6-33.028a2.04,2.04,0,0,0-.179-2.065A2.04,2.04,0,0,0-664.472,618.263Zm-49.931-13.74h.788c2.794,0,5.591-.015,8.388,0a2.708,2.708,0,0,0,1.936-.739c1.4-1.252,2.824-2.476,4.259-3.685a1.284,1.284,0,0,1,.754-.305q8.384-.025,16.775-.015c.137,0,.275.015.458.031v8.8H-714.4Zm-.046,7.939h33.419v5.8c-.22.015-.418.037-.611.037q-16.082,0-32.164.015c-.51,0-.663-.153-.653-.66.025-1.719.009-3.441.009-5.2Zm-11.865-43.293,4.885,5.059h-4.885Zm-42.246,66.278c-.26,0-.522-.021-.834-.037V567.181c0-1.047-.131-.934.959-.934h38.3v9.6a1.945,1.945,0,0,0,.553,1.669,1.946,1.946,0,0,0,1.673.541h9.661v40.237h-27.672c-1.475,0-1.914.305-2.394,1.679-1.725,4.931-3.462,9.853-5.16,14.79a.876.876,0,0,1-1,.7c-4.7-.025-9.389-.016-14.085-.016Zm7.6,20a15.933,15.933,0,0,1-.425-2.513c-.04-4.427-.021-8.854-.015-13.285a3.161,3.161,0,0,1,.046-.388h6.284c-1.9,5.432-3.777,10.8-5.661,16.183a1.148,1.148,0,0,0-.229,0Zm92.677-28.891q-4.641,13.264-9.288,26.512a12.289,12.289,0,0,1-11.661,8.259h-63.353a8.854,8.854,0,0,1-5.114-1.6.59.59,0,0,1-.3-.348.589.589,0,0,1,.041-.458q6.378-18.164,12.717-36.334c.18-.522.485-.54.916-.54h77.609c-.553,1.588-1.057,3.05-1.567,4.51Z" transform="translate(773.197 -562.447)"/>
        <path id="Path_217" data-name="Path 217" d="M-700.219,632.414c-1.337-.507-2.7-.943-4.043-1.414-.537-.189-.611-.366-.305-.843a10.438,10.438,0,0,0,.647-1.109,4.653,4.653,0,0,1,1.481-2.241,1.368,1.368,0,0,0,.412-.611,7.432,7.432,0,0,0,.256-5.142c-.162-.611-.4-1.194-.553-1.8a9.022,9.022,0,0,0-9.026-7.081,8.772,8.772,0,0,0-8.507,7.633,3.678,3.678,0,0,1-.2.889,7.046,7.046,0,0,0-.116,5.074,1.832,1.832,0,0,0,.547.94,5.521,5.521,0,0,1,1.594,2.461,7.947,7.947,0,0,0,.525.9c.4.629.351.73-.342.986-1.527.556-3.09,1.066-4.58,1.716a5.234,5.234,0,0,0-3.374,5.081c-.021,2.082,0,4.165-.015,6.25a2.442,2.442,0,0,0,.693,2.055,2.443,2.443,0,0,0,2.055.693H-711v.021h12.07a2.442,2.442,0,0,0,2.023-.687,2.442,2.442,0,0,0,.709-2.016V638.23a5.869,5.869,0,0,0-4.024-5.817Zm.25,10.687h-21.294c-.806,0-.806,0-.8-.791,0-1.408.024-2.818,0-4.226a1.832,1.832,0,0,1,1.3-1.921c1.768-.638,3.523-1.292,5.3-1.89a2.079,2.079,0,0,0,1.526-1.527c.19-.708.418-1.408.611-2.113a1.878,1.878,0,0,0-.455-1.924,5.654,5.654,0,0,1-1.45-2.787,2.086,2.086,0,0,0-1.2-1.594,1.368,1.368,0,0,1-.272-1.582,3.753,3.753,0,0,0,.5-1.924,5.242,5.242,0,0,1,3.905-4.733,5.191,5.191,0,0,1,4.028.7,5.191,5.191,0,0,1,2.271,3.4c.116.476.146.971.244,1.45a1.74,1.74,0,0,0,.244.739,2.137,2.137,0,0,1,.226,1.588c0,.128-.2.281-.348.351a1.926,1.926,0,0,0-1.124,1.435,6.23,6.23,0,0,1-1.548,3.014,1.738,1.738,0,0,0-.4,1.768c.241.8.492,1.6.736,2.394a1.905,1.905,0,0,0,1.343,1.307c1.609.522,3.215,1.041,4.815,1.609a2.312,2.312,0,0,1,1.832,2.65Z" transform="translate(739.6 -597.745)"/>
        <path id="Path_218" data-name="Path 218" d="M-734.5,595.429a1.9,1.9,0,0,1-.6,1.393,1.9,1.9,0,0,1-1.43.507h-8.507a1.905,1.905,0,0,1-1.981-1.481,1.832,1.832,0,0,1,1.124-2.137,2.662,2.662,0,0,1,.9-.131c1.4-.015,2.812,0,4.223,0h4.275a1.856,1.856,0,0,1,1.4.488,1.856,1.856,0,0,1,.6,1.362Z" transform="translate(754.67 -584.518)"/>
      </g>
    </g>
  </g>
</svg>
