<svg xmlns="http://www.w3.org/2000/svg" xmlns:xlink="http://www.w3.org/1999/xlink" width="128" height="128" viewBox="0 0 128 128">
  <defs>
    <clipPath id="clip-path">
      <rect id="Rectangle_452" data-name="Rectangle 452" width="128" height="128" transform="translate(0 -0.301)" fill="#fff"/>
    </clipPath>
  </defs>
  <g id="Mask_Group_9" data-name="Mask Group 9" transform="translate(0 0.301)" clip-path="url(#clip-path)">
    <g id="Group_883" data-name="Group 883" transform="translate(14.202 14.197)">
      <path id="Path_321" data-name="Path 321" d="M-2788.707-1300.445c4.054-6.852,8.1-13.7,12.078-20.6a4.916,4.916,0,0,0-1.321-6.3,5.108,5.108,0,0,0-6.462.058c-.2.164-.412.321-.729.569v-1.255c0-4.437.019-8.877,0-13.317a5.006,5.006,0,0,0-4.82-5.108,13.884,13.884,0,0,0-2.419.289,4.979,4.979,0,0,0-4.888-4.623,5.109,5.109,0,0,0-5.444,4.743,5.192,5.192,0,0,0-4.973.463,5.318,5.318,0,0,0-2.292,4.356,5.392,5.392,0,0,0-5.276.784,5.39,5.39,0,0,0-2.021,4.937c.219,4.656.055,9.33.058,14,0,.781-.029,1.554,0,2.331a1.458,1.458,0,0,0,.4,1.075,1.46,1.46,0,0,0,1.056.45,1.463,1.463,0,0,0,1.046-.441,1.463,1.463,0,0,0,.413-1.058c.022-.386,0-.777,0-1.167v-14.773c0-.456-.019-.908,0-1.361a2.189,2.189,0,0,1,2.138-2.189,2.189,2.189,0,0,1,2.233,2.1,9.6,9.6,0,0,1,.022.97v8.359c0,1.094.525,1.7,1.426,1.7s1.459-.6,1.488-1.671,0-2.189,0-3.306c0-3.565-.018-7.126,0-10.69a2.158,2.158,0,0,1,.816-1.888,2.16,2.16,0,0,1,2.026-.349,2.222,2.222,0,0,1,1.5,2.35q0,6.706,0,13.412a4.039,4.039,0,0,0,.047.97,1.364,1.364,0,0,0,.534.9,1.363,1.363,0,0,0,1.018.255,1.338,1.338,0,0,0,1.3-1.324,8.186,8.186,0,0,0,0-.876v-17.2a7.988,7.988,0,0,1,.022-.967,2.189,2.189,0,0,1,2.156-1.989,2.189,2.189,0,0,1,2.16,1.853,6.736,6.736,0,0,1,.062,1.161v17.513c0,1.252.511,1.879,1.459,1.868s1.459-.66,1.459-1.9v-5.053c0-2.919-.022-5.838,0-8.757a2.159,2.159,0,0,1,.847-1.874,2.161,2.161,0,0,1,2.032-.316,2.233,2.233,0,0,1,1.459,2.383v18.663a1.232,1.232,0,0,1,0,.482,6.755,6.755,0,0,1-.909,1.678c-.16.179-.773,0-1.175-.08a7.622,7.622,0,0,0-5.819,1.3,7.624,7.624,0,0,0-3.1,5.092,7.333,7.333,0,0,0,2.04,6.429,1.416,1.416,0,0,0,1,.548,1.417,1.417,0,0,0,1.079-.362,1.459,1.459,0,0,0,.491-1.022,1.461,1.461,0,0,0-.389-1.065c-.117-.157-.252-.292-.365-.445a4.743,4.743,0,0,1-.025-5.838,4.776,4.776,0,0,1,5.6-1.434c1.653.7,1.984.591,2.875-.945,1.233-2.131,2.448-4.265,3.7-6.385a2.1,2.1,0,0,1,2.382-1.094,1.942,1.942,0,0,1,1.66,1.787,3.461,3.461,0,0,1-.485,1.824q-3.93,6.932-7.94,13.8c-1.073,1.846-2.105,3.725-3.317,5.473a11.275,11.275,0,0,0-2.189,6.713v2.988h-16.5c0-.959-.025-1.861,0-2.758a10.748,10.748,0,0,0-2.313-7.144,14.009,14.009,0,0,1-1.292-2.16,14.552,14.552,0,0,1-1.3-7.086,1.406,1.406,0,0,0-.322-1.14,1.407,1.407,0,0,0-1.079-.49,1.456,1.456,0,0,0-1.092.44,1.456,1.456,0,0,0-.412,1.1,17.149,17.149,0,0,0,3.218,11.249,8.177,8.177,0,0,1,1.5,3.313,28.274,28.274,0,0,1,.062,4.641c-1.357.365-1.609.7-1.613,2.189,0,1.781,0,3.565-.018,5.345,0,.3-.025.73-.215.883a2.165,2.165,0,0,0-.693,2.014v29.061a2.555,2.555,0,0,0,.872,2.215h25.865a2.313,2.313,0,0,0,.945-2.189q-.029-14.485,0-28.966c0-.817.033-1.616-.77-2.189-.168-.113-.171-.525-.175-.8v-5.345c0-1.536-.255-1.879-1.733-2.259v-3.379A8.193,8.193,0,0,1-2788.707-1300.445Zm-22.376,10.581h19.815v5.108h-19.815Zm20.764,35.676h-21.687v-27.492h21.687Z" transform="translate(2849.514 1350.769)"/>
      <path id="Path_322" data-name="Path 322" d="M-2469.181-992.4a4.013,4.013,0,0,0-4.327-1.507,12.589,12.589,0,0,0-1.73.668c0-3.488,0-6.888,0-10.285a4.1,4.1,0,0,0-3.284-4.13,12.612,12.612,0,0,0-2.305-.022,4.207,4.207,0,0,0-3.791-3.382,4.283,4.283,0,0,0-4.7,3.43c-3.05-.485-4.418.416-5.673,3.689a4.379,4.379,0,0,0-4.067.939,4.379,4.379,0,0,0-1.432,3.921v18.56a12.118,12.118,0,0,0,2.189,7.516,7.74,7.74,0,0,1,1.609,5.345,1.245,1.245,0,0,1-.6,1.164,1.962,1.962,0,0,0-.69,1.361c-.087,1.357,0,2.718-.036,4.079a3.492,3.492,0,0,1-.223.9,6.437,6.437,0,0,0-.485,1.609c-.055,2.426,0,4.86-.041,7.3a2.125,2.125,0,0,0,.978,2.058h20.027a2.516,2.516,0,0,0,.879-2.215c-.043-2.364,0-4.743-.029-7.1a2.043,2.043,0,0,0-.2-1.211,2.823,2.823,0,0,1-.489-2.094v-2.817c0-.938-.087-1.693-1.062-2.076a.462.462,0,0,1-.248-.343,8.28,8.28,0,0,1,.73-4.718q2.509-4.094,4.94-8.239c1.506-2.554,3-5.141,4.447-7.742A3.97,3.97,0,0,0-2469.181-992.4Zm-10.727,40.222h-15.9v-5.378h15.9Zm8.37-36.657q-4.546,7.746-9.121,15.477a8.312,8.312,0,0,0-1.226,4.236v2.31c-.4.033-.653.047-.905.069a1.383,1.383,0,0,0-1.361,1.383,1.411,1.411,0,0,0,.363,1.031,1.413,1.413,0,0,0,.99.464c.7.062,1.412,0,2.189,0v3.247h-14.426v-3.24h4.626a5.756,5.756,0,0,0,1.16-.058,1.334,1.334,0,0,0,.912-.519,1.334,1.334,0,0,0,.256-1.017,1.293,1.293,0,0,0-.389-.924,1.292,1.292,0,0,0-.932-.368c-1.095-.051-2.189-.022-3.306-.029h-1.095v-1.9a8.476,8.476,0,0,0-1.759-5.436,9.7,9.7,0,0,1-2.014-6.06V-999.32a3.355,3.355,0,0,1,0-.485c.109-.806.529-1.357,1.39-1.317a1.254,1.254,0,0,1,.96.418,1.255,1.255,0,0,1,.31,1v6.71c0,1.222.518,1.916,1.43,1.934s1.478-.682,1.481-1.97v-10.5a1.279,1.279,0,0,1,.359-.933,1.278,1.278,0,0,1,.921-.388,1.31,1.31,0,0,1,.98.355,1.311,1.311,0,0,1,.41.958,7.644,7.644,0,0,1,0,.777v9.72c0,1.3.532,2,1.459,1.978s1.459-.73,1.459-2.032v-13.8a1.217,1.217,0,0,1,.356-.933,1.215,1.215,0,0,1,.935-.351,1.229,1.229,0,0,1,.942.331,1.23,1.23,0,0,1,.386.921,9.585,9.585,0,0,1,.022.97v12.635a6.713,6.713,0,0,0,.041.971,1.346,1.346,0,0,0,.462.941,1.346,1.346,0,0,0,1,.325,1.339,1.339,0,0,0,1.372-1.259,6.929,6.929,0,0,0,.04-.971v-9.625a5.522,5.522,0,0,1,.019-.679,1.224,1.224,0,0,1,.4-.916,1.225,1.225,0,0,1,.946-.317,1.22,1.22,0,0,1,.93.369,1.217,1.217,0,0,1,.339.941c.022.547,0,1.095,0,1.653v12.536c0,1.489-.259,1.726-1.664,1.547a6.2,6.2,0,0,0-6.129,3.284,6.233,6.233,0,0,0,.847,6.98c.729.8,1.532.923,2.214.365s.667-1.383,0-2.24a3.284,3.284,0,0,1-.193-4.2,3.319,3.319,0,0,1,4.108-.919c1.132.463,1.693.277,2.328-.807.934-1.591,1.843-3.193,2.777-4.787.54-.923,1.266-1.2,1.988-.8a1.38,1.38,0,0,1,.44,2.1Z" transform="translate(2567.813 1048.747)"/>
      <path id="Path_323" data-name="Path 323" d="M-3078.494-1009.494q.091-9.326.018-18.655a3.959,3.959,0,0,0-3.686-3.951c-.471-.044-.945,0-1.459,0a3.518,3.518,0,0,0-1.824-2.722,21.19,21.19,0,0,0-3.437-.934,3.878,3.878,0,0,0-3.743-2.788,4.031,4.031,0,0,0-4.065,3.075,1.488,1.488,0,0,1-.339,0,4.108,4.108,0,0,0-3.554,1.038,4.11,4.11,0,0,0-1.276,3.476c.125,2.583.033,5.177.03,7.771a6.051,6.051,0,0,1-.051.664,12.727,12.727,0,0,0-2.715-.384,4.035,4.035,0,0,0-3.608,3.182v1.554c1.248,2.262,2.456,4.546,3.75,6.783,1.733,3,3.521,5.958,5.32,8.917a7.351,7.351,0,0,1,.682,4.148.5.5,0,0,1-.223.365c-.937.445-.988,1.266-.967,2.145a21.455,21.455,0,0,1,0,2.525,11.794,11.794,0,0,1-.419,1.707,3.915,3.915,0,0,0-.187.938q0,7.629-.021,15.255a1.854,1.854,0,0,0,1.018,1.726h18.279c.288-.365.8-.73.832-1.094a19.654,19.654,0,0,0,0-3.671,1.236,1.236,0,0,0-.516-.864,1.239,1.239,0,0,0-.988-.194,1.317,1.317,0,0,0-1.287,1.328c-.041.5,0,1.014,0,1.532h-14.361v-12.708h14.35v4.218c0,1.051.587,1.715,1.459,1.708a1.529,1.529,0,0,0,1.106-.537,1.53,1.53,0,0,0,.353-1.178c.022-1.824,0-3.627,0-5.44a1.511,1.511,0,0,0-.2-.927,2.77,2.77,0,0,1-.482-2.1v-2.627a1.67,1.67,0,0,0-.875-1.7.727.727,0,0,1-.31-.507,6.622,6.622,0,0,1,1.2-4.769A10.244,10.244,0,0,0-3078.494-1009.494Zm-5.185,17.148h-12.959V-995h12.959Zm2.31-35.1v17.1a8.553,8.553,0,0,1-1.623,5.389,8.692,8.692,0,0,0-1.824,5.889c0,.317,0,.635,0,1.025h-10.691a10.434,10.434,0,0,0-.033-2.339,14.731,14.731,0,0,0-1.266-3.809c-2.675-4.743-5.473-9.391-8.231-14.076a1.047,1.047,0,0,1-.215-.876,1.048,1.048,0,0,1,.546-.718,1.045,1.045,0,0,1,.9-.126,1.046,1.046,0,0,1,.659.619c.869,1.481,1.712,2.974,2.577,4.455.683,1.175,1.193,1.339,2.481.828a2.9,2.9,0,0,1,3.492.879,2.867,2.867,0,0,1-.113,3.6c-.73.985-.73,1.824.033,2.36s1.562.365,2.262-.558a5.546,5.546,0,0,0,.71-6.2,5.513,5.513,0,0,0-5.429-3.233c-1.736.04-1.736.062-1.741-1.719v-12.04c0-.365-.025-.817.171-1.014.274-.277.891-.595,1.113-.467a1.76,1.76,0,0,1,.846,1.193c.07,3.043.041,6.089.037,9.122,0,1.488.463,2.189,1.438,2.211s1.485-.73,1.481-2.189v-12.15c0-.66.2-1.24.879-1.292a1.725,1.725,0,0,1,1.175.6c.193.2.12.679.12,1.032v12.438a1.514,1.514,0,0,0,.442,1.095,1.514,1.514,0,0,0,1.094.445,1.46,1.46,0,0,0,1.018-.505,1.462,1.462,0,0,0,.347-1.082v-9.231c0-.365-.069-.8.117-1.036a1.7,1.7,0,0,1,1.094-.686c.311,0,.7.456.905.8a1.976,1.976,0,0,1,.077.952v9.238a1.481,1.481,0,0,0,.381,1.069,1.482,1.482,0,0,0,1.026.485,1.459,1.459,0,0,0,1.092-.461,1.46,1.46,0,0,0,.39-1.119c.036-1.846,0-3.692.018-5.539v-.97a1.035,1.035,0,0,1,.295-.805,1.035,1.035,0,0,1,.8-.308c.682,0,1.032.467,1.094,1.138a2.248,2.248,0,0,1,.05.577Z" transform="translate(3108.205 1073.168)"/>
      <path id="Path_324" data-name="Path 324" d="M-2368.5-1335.72c-.19-.142-.365-.31-.583-.511a3.944,3.944,0,0,0,3.321-2.158,3.945,3.945,0,0,0-.227-3.954,8.469,8.469,0,0,0-4.1-3.842.957.957,0,0,1-.73-.971,3.83,3.83,0,0,0-1.089-2.772,3.831,3.831,0,0,0-2.745-1.154,3.877,3.877,0,0,0-2.76,1.128,3.876,3.876,0,0,0-1.141,2.754,1.025,1.025,0,0,1-.729,1.051,8.629,8.629,0,0,0-4.634,10.556,9.033,9.033,0,0,0,3.58,4.633,3.976,3.976,0,0,0-3.269,2.164,3.975,3.975,0,0,0,.178,3.916,8.158,8.158,0,0,0,4.014,3.925,1.244,1.244,0,0,1,.872,1.277,3.889,3.889,0,0,0,3.871,3.722,3.842,3.842,0,0,0,3.86-3.812,1.1,1.1,0,0,1,.773-1.139,8.622,8.622,0,0,0,5.026-6.963A8.622,8.622,0,0,0-2368.5-1335.72Zm-3.375,12.423c-1.748.566-1.825.679-1.825,2.554v.485c.041.729-.131,1.375-.984,1.357s-.989-.689-.96-1.4v-.58c0-1.744-.091-1.868-1.748-2.39a5.592,5.592,0,0,1-3.561-3.211.934.934,0,0,1-.115-.8.934.934,0,0,1,.545-.591.957.957,0,0,1,.76-.032.954.954,0,0,1,.543.533,5.838,5.838,0,0,0,7.366,1.974,3.827,3.827,0,0,0,1.992-3.9,3.715,3.715,0,0,0-3.032-3.138,16.879,16.879,0,0,0-2.518-.12,5.713,5.713,0,0,1-5.95-5,5.689,5.689,0,0,1,4.378-6.312,1.579,1.579,0,0,0,1.328-1.744c-.019-.485,0-.971,0-1.459.029-.635.365-1.157,1-1.029.364.077.923.682.886.989a2.919,2.919,0,0,0,.413,2.442,2.917,2.917,0,0,0,2.141,1.246,4.489,4.489,0,0,1,2.77,2.707c.281.591.23,1.095-.365,1.409s-1.029.025-1.368-.525a5.878,5.878,0,0,0-7.611-1.613,3.828,3.828,0,0,0-1.566,4.174,3.761,3.761,0,0,0,3.492,2.751c1.033.051,2.08,0,3.1.135a5.652,5.652,0,0,1,4.849,5.184,5.77,5.77,0,0,1-3.977,5.9Zm-5.207-6.352h3.178c.617,0,1.131.211,1.12.916s-.492.847-1.095.843a3.193,3.193,0,0,0-.387,0c-1.386.2-2.481-.131-2.81-1.758Zm5.137-7.786c-1.335,0-2.517.059-3.689-.037-.324-.025-.843-.493-.85-.77a1.174,1.174,0,0,1,.729-.879,3.876,3.876,0,0,1,2.189.021c.649.3,1.05,1.073,1.6,1.664Z" transform="translate(2464.548 1351.08)"/>
    </g>
  </g>
</svg>
