<svg xmlns="http://www.w3.org/2000/svg" xmlns:xlink="http://www.w3.org/1999/xlink" width="128" height="128" viewBox="0 0 128 128">
  <defs>
    <clipPath id="clip-path">
      <rect id="Rectangle_451" data-name="Rectangle 451" width="128" height="128" transform="translate(0 0.35)" fill="#fff"/>
    </clipPath>
  </defs>
  <g id="Mask_Group_8" data-name="Mask Group 8" transform="translate(0 -0.35)" clip-path="url(#clip-path)">
    <g id="Group_879" data-name="Group 879" transform="translate(14.117 14.146)">
      <path id="Path_278" data-name="Path 278" d="M-2449.958-1144.659c0,1.2-.632,1.921-1.612,1.927s-1.621-.743-1.624-2.013c0-10.368-.081-20.735.042-31.1a5.353,5.353,0,0,0-1.561-4.3,5.355,5.355,0,0,0-4.309-1.526c-7.356.153-14.722.042-22.081.042h-1.268v30.171a4.933,4.933,0,0,1-1.417,4.089,4.935,4.935,0,0,1-4.1,1.4h-15.093a4.908,4.908,0,0,1-3.929-1.427,4.907,4.907,0,0,1-1.405-3.937q0-6.027,0-12.054a1.771,1.771,0,0,1,1.034-1.9c1.147-.479,2.206.356,2.208,1.8.015,3.985,0,7.968,0,11.953,0,1.864.465,2.337,2.319,2.337h14.886c1.726,0,2.238-.506,2.238-2.223v-30.132h-19.45v11.039a1.654,1.654,0,0,1-.41,1.315,1.654,1.654,0,0,1-1.262.549,1.644,1.644,0,0,1-1.2-.585,1.642,1.642,0,0,1-.369-1.279c0-3.646,0-7.293,0-11.087H-2532.2a4.872,4.872,0,0,0-3.882,1.414,4.871,4.871,0,0,0-1.4,3.887v73.637a4.883,4.883,0,0,0,1.412,3.937,4.888,4.888,0,0,0,3.939,1.4h31.094a6,6,0,0,1,1.013.024,1.529,1.529,0,0,1,1.415,1.582,1.534,1.534,0,0,1-1.387,1.606,4.809,4.809,0,0,1-.9.027h-31.2a8.126,8.126,0,0,1-6.263-2.364,8.126,8.126,0,0,1-2.364-6.263v-73.235a8.139,8.139,0,0,1,6.73-8.792c.06-.015.1-.075.159-.117h76.99c.512.159,1.025.3,1.528.482a8.04,8.04,0,0,1,5.346,7.518Q-2449.928-1160.764-2449.958-1144.659Z" transform="translate(2540.755 1184.852)"/>
      <path id="Path_279" data-name="Path 279" d="M-2191.646-869.519a30.838,30.838,0,0,0-11.486-21,30.84,30.84,0,0,0-23.047-6.458,30.864,30.864,0,0,0-20.87,12.284,30.862,30.862,0,0,0-5.579,23.565,30.805,30.805,0,0,0,33.317,25.347,30.65,30.65,0,0,0,26.614-22.173c.551-1.972.821-4.018,1.219-6.029v-4.863A4.206,4.206,0,0,1-2191.646-869.519Zm-30.863,30.662a27.568,27.568,0,0,1-27.343-27.69,27.567,27.567,0,0,1,27.708-27.42,27.591,27.591,0,0,1,27.4,27.63,27.6,27.6,0,0,1-8.184,19.5A27.6,27.6,0,0,1-2222.509-838.856Z" transform="translate(2295.243 939.341)"/>
      <path id="Path_280" data-name="Path 280" d="M-2469.441-720.051h-24.891c-1.6,0-2.142.53-2.142,2.1v11.941c0,1.645.524,2.163,2.19,2.163h24.792c1.663,0,2.19-.521,2.193-2.163v-11.941C-2467.313-719.518-2467.853-720.051-2469.441-720.051Zm-1.133,12.885h-22.584v-9.589h22.584Z" transform="translate(2502.988 788.112)"/>
      <path id="Path_281" data-name="Path 281" d="M-2116.714-804.917a11.24,11.24,0,0,0,8.27-3.9,11.241,11.241,0,0,0,2.631-8.757c-.435-3.919-1.073-7.815-1.636-11.716a1.607,1.607,0,0,0-.558-1.17,1.61,1.61,0,0,0-1.24-.379c-1.519-.021-3.041-.066-4.554.027-.5.033-1.294.336-1.429.707a45.691,45.691,0,0,0-1.9,6.245,22.7,22.7,0,0,0-.051,4.36l-2.787-2.1a14.06,14.06,0,0,1,.688-1.4,2.3,2.3,0,0,0-.188-2.886c-.915-1.249-1.753-2.562-2.586-3.871a2.119,2.119,0,0,0-2-1.1c-1.384.042-2.765,0-4.152.015a1.684,1.684,0,0,0-1.376.389,1.686,1.686,0,0,0-.581,1.307c-.527,3.6-1.069,7.191-1.563,10.811a11.35,11.35,0,0,0,8.6,13.109c.869.21,1.773.282,2.7.422v5.789c0,.234-.024.467-.039.716-.341.108-.659.2-.977.3a8.166,8.166,0,0,0-5.459,7.236c-.057,1.363.545,2.041,1.885,2.047q6.175.015,12.351,0c1.411,0,2.056-.674,1.945-2.1a7.918,7.918,0,0,0-4.2-6.622,22.7,22.7,0,0,0-2.22-.953v-6.478C-2116.894-804.9-2116.8-804.914-2116.714-804.917Zm2.335,12.915h-8.824a4.551,4.551,0,0,1,4.527-3.179,4.494,4.494,0,0,1,4.3,3.176Zm-7.191-16.246a7.954,7.954,0,0,1-5.413-3.05,7.958,7.958,0,0,1-1.569-6.011c.4-3.413.944-6.811,1.43-10.263.285-.015.417-.033.548-.027.7.036,1.669-.2,2.038.171a14.4,14.4,0,0,1,2.1,3.071c.123.207-.151.68-.3.995-1.342,2.721-1.348,2.718,1.04,4.495,1.618,1.216,3.242,2.424,4.857,3.652a1.743,1.743,0,0,0,1.959.378,1.8,1.8,0,0,0,.944-1.861c-.018-1.618.063-3.242-.018-4.86a13.07,13.07,0,0,1,.8-5.043c.3-.827.671-1.139,1.5-1.028a9.047,9.047,0,0,0,1.159,0c.414,2.906.807,5.741,1.229,8.573a11.479,11.479,0,0,1,.018,4.914,8.091,8.091,0,0,1-7.575,5.951,30.935,30.935,0,0,1-4.711-.057Z" transform="translate(2191.746 882.701)"/>
    </g>
  </g>
</svg>
